FFmpeg version SVN-r25716, Copyright (c) 2000-2010 the FFmpeg developers  built on Nov 10 2010 12:23:18 with gcc 4.1.2 20080704 (Red Hat 4.1.2-48)  configuration: --enable-libmp3lame --enable-shared --disable-mmx --arch=x86_64  libavutil     50.33. 0 / 50.33. 0  libavcore      0.12. 1 /  0.12. 1  libavcodec    52.94. 4 / 52.94. 4  libavformat   52.84. 0 / 52.84. 0  libavdevice   52. 2. 2 / 52. 2. 2  libavfilter    1.59. 0 /  1.59. 0  libswscale     0.12. 0 /  0.12. 0Input #0, avi, from '/RAID10/data/converted_video_files/47656.avi':  Duration: 00:00:10.35, start: 0.000000, bitrate: 187142 kb/s    Stream #0.0: Video: msvideo1, rgb555le, 1024x1024, 20 tbr, 20 tbn, 20 tbc[buffer @ 0xcba3510] w:1024 h:1024 pixfmt:rgb555le[ffsink @ 0xcbc0de0] auto-inserting filter 'auto-inserted scaler 0' between the filter 'src' and the filter 'out'[scale @ 0xcbc1100] w:1024 h:1024 fmt:rgb555le -> w:1024 h:1024 fmt:yuv420p flags:0x4Output #0, flv, to '/RAID10/data/converted_video_files/47656.flv':  Metadata:    encoder         : Lavf52.84.0    Stream #0.0: Video: flv, yuv420p, 1024x1024, q=2-31, 600 kb/s, 1k tbn, 24 tbcStream mapping:  Stream #0.0 -> #0.0Press [q] to stop encodingframe=    7 fps=  0 q=15.4 size=     875kB time=0.33 bitrate=21456.5kbits/s    frame=   14 fps= 12 q=12.3 size=    1169kB time=0.71 bitrate=13522.3kbits/s    frame=   21 fps= 12 q=17.5 size=    1418kB time=1.04 bitrate=11148.3kbits/s    frame=   29 fps= 13 q=31.0 size=    1505kB time=1.46 bitrate=8453.9kbits/s    frame=   39 fps= 14 q=31.0 size=    1599kB time=1.96 bitrate=6685.5kbits/s    frame=   47 fps= 14 q=31.0 size=    1680kB time=2.33 bitrate=5897.8kbits/s    frame=   56 fps= 15 q=24.8 size=    1760kB time=2.79 bitrate=5164.9kbits/s    frame=   66 fps= 15 q=31.0 size=    1831kB time=3.29 bitrate=4557.2kbits/s    frame=   75 fps= 15 q=31.0 size=    1918kB time=3.75 bitrate=4189.6kbits/s    frame=   85 fps= 16 q=31.0 size=    2011kB time=4.25 bitrate=3875.9kbits/s    frame=   94 fps= 16 q=31.0 size=    2100kB time=4.71 bitrate=3653.0kbits/s    frame=  103 fps= 16 q=31.0 size=    2167kB time=5.12 bitrate=3464.0kbits/s    frame=  113 fps= 16 q=31.0 size=    2256kB time=5.62 bitrate=3286.4kbits/s    frame=  123 fps= 16 q=31.0 size=    2344kB time=6.12 bitrate=3135.5kbits/s    frame=  132 fps= 16 q=31.0 size=    2428kB time=6.58 bitrate=3020.7kbits/s    frame=  142 fps= 16 q=31.0 size=    2514kB time=7.08 bitrate=2907.3kbits/s    frame=  150 fps= 16 q=31.0 size=    2560kB time=7.50 bitrate=2796.0kbits/s    frame=  160 fps= 16 q=31.0 size=    2646kB time=8.00 bitrate=2709.7kbits/s    frame=  169 fps= 16 q=31.0 size=    2733kB time=8.46 bitrate=2646.6kbits/s    frame=  178 fps= 16 q=31.0 size=    2828kB time=8.88 bitrate=2610.1kbits/s    frame=  188 fps= 17 q=24.8 size=    2922kB time=9.37 bitrate=2553.5kbits/s    frame=  198 fps= 17 q=31.0 size=    2996kB time=9.88 bitrate=2485.5kbits/s    frame=  207 fps= 17 q=31.0 size=    3100kB time=10.33 bitrate=2457.3kbits/s    frame=  207 fps= 17 q=31.0 Lsize=    3100kB time=10.33 bitrate=2457.3kbits/s    video:3096kB audio:0kB global headers:0kB muxing overhead 0.111080%